<svg t="1678782892548" class="icon" viewBox="0 0 1025 1024" version="1.1" xmlns="http://www.w3.org/2000/svg" p-id="9253" width="200" height="200"><path d="M512.511489 1.022977q106.38961 0 199.480519 39.896104t162.653347 109.458541 109.458541 162.653347 39.896104 199.480519-39.896104 199.480519-109.458541 162.653347-162.653347 109.458541-199.480519 39.896104-199.480519-39.896104-162.653347-109.458541-109.458541-162.653347-39.896104-199.480519 39.896104-199.480519 109.458541-162.653347 162.653347-109.458541 199.480519-39.896104zM854.185814 471.592408q3.068931-4.091908 6.137862-9.718282t3.068931-13.81019q0-11.252747-7.160839-20.45954-5.114885-6.137862-10.22977-8.695305t-10.22977-3.58042q-5.114885-2.045954-9.206793-2.045954l-7.160839 0-197.434565 0q-5.114885 0-9.206793-4.091908-6.137862-4.091908-6.137862-8.183816l-57.286713-204.595405q-2.045954-5.114885-3.58042-9.718282t-4.603397-9.718282q-4.091908-4.091908-10.741259-9.206793t-17.902098-6.137862q-11.252747 1.022977-18.413586 6.137862t-10.22977 9.206793q-3.068931 5.114885-4.603397 9.718282t-3.58042 9.718282l-57.286713 204.595405q0 4.091908-6.137862 8.183816-4.091908 4.091908-9.206793 4.091908l-197.434565 0q-5.114885 0-10.741259 0.511489t-11.764236 3.58042q-9.206793 3.068931-14.321678 10.22977-9.206793 9.206793-7.160839 20.45954 0 8.183816 2.557443 13.81019t5.626374 9.718282q5.114885 6.137862 15.344655 11.252747l158.561439 104.343656q2.045954 2.045954 4.603397 7.160839t2.557443 10.22977l0 3.068931-62.401598 201.526474q-1.022977 5.114885-2.045954 9.206793t-1.022977 9.206793q0 4.091908 1.022977 9.718282t6.137862 12.787213q4.091908 6.137862 11.764236 9.718282t13.81019 3.58042q13.298701-1.022977 19.436563-4.603397t12.275724-8.695305l155.492507-131.964036q1.022977-3.068931 8.183816-3.068931 5.114885 0 7.160839 2.045954l163.676324 134.00999q7.160839 4.091908 13.81019 7.672328t17.902098 4.603397l1.022977 0q6.137862 0 13.298701-3.58042t11.252747-9.718282q5.114885-7.160839 6.649351-12.275724t1.534466-9.206793q0-5.114885-1.022977-9.718282t-3.068931-9.718282l-69.562438-203.572428q-1.022977-1.022977-1.022977-3.068931 0-4.091908 2.557443-9.206793t4.603397-6.137862l157.538462-104.343656q9.206793-4.091908 14.321678-11.252747z" p-id="9254" fill="#1296db"></path></svg>
