<svg t="1681907368276" class="icon" viewBox="0 0 1024 1024" version="1.1" xmlns="http://www.w3.org/2000/svg" p-id="2804" width="200" height="200"><path d="M224 831.936V192.096L223.744 192 800 192.096 800.256 832 224 831.936zM800.256 128H223.744A64 64 0 0 0 160 192.096v639.84A64 64 0 0 0 223.744 896h576.512A64 64 0 0 0 864 831.936V192.096A64 64 0 0 0 800.256 128z" fill="#ffffff" p-id="2805"></path><path d="M640 416h-256a32 32 0 0 0 0 64h256a32 32 0 0 0 0-64M640 576h-256a32 32 0 0 0 0 64h256a32 32 0 0 0 0-64" fill="#ffffff" p-id="2806"></path></svg>
