<svg t="1678780502961" class="icon" viewBox="0 0 1024 1024" version="1.1" xmlns="http://www.w3.org/2000/svg" p-id="5258" width="200" height="200"><path d="M512.768 704.853333a190.250667 190.250667 0 0 1-135.850667-56.192 192.298667 192.298667 0 0 1 0-271.786666 192.298667 192.298667 0 0 1 271.744 0 192.298667 192.298667 0 0 1 0 271.786666 192.853333 192.853333 0 0 1-135.893333 56.234667z m0-292.053333c-24.96 0-49.962667 9.386667-70.272 28.16-39.04 38.997333-39.04 101.504 0 138.965333 39.04 39.04 101.546667 39.04 139.008 0 39.04-39.04 39.04-101.546667 0-139.008-18.773333-17.152-43.733333-28.117333-68.693333-28.117333zM251.946667 559.658667H89.514667A46.037333 46.037333 0 0 1 42.666667 512.768c0-26.538667 20.309333-46.848 46.848-46.848h162.432c26.538667 0 46.848 20.309333 46.848 46.848 0 26.581333-20.309333 46.848-46.848 46.848zM934.485333 559.658667h-162.432a46.037333 46.037333 0 0 1-46.848-46.890667c0-26.538667 20.309333-46.848 46.848-46.848h162.432c26.538667 0 46.848 20.309333 46.848 46.848 0 26.581333-20.309333 46.848-46.848 46.848zM212.906667 857.941333c-12.501333 0-23.466667-4.693333-32.810667-14.08-18.730667-18.730667-18.730667-48.384 0-65.578666l115.626667-115.541334c18.688-18.773333 48.384-18.773333 65.578666 0 18.730667 18.730667 18.730667 48.384 0 65.578667l-115.626666 115.584c-7.765333 9.386667-20.266667 14.08-32.768 14.08zM695.509333 375.338667c-12.501333 0-23.424-4.693333-32.768-14.08-18.773333-18.730667-18.773333-48.384 0-65.578667l128.042667-128.085333c18.773333-18.730667 48.426667-18.730667 65.621333 0 18.730667 18.773333 18.730667 48.426667 0 65.621333l-126.506666 128.085333c-9.386667 9.386667-21.888 14.037333-34.389334 14.037334zM512.768 298.794667a46.037333 46.037333 0 0 1-46.848-46.848V89.514667c0-26.538667 20.309333-46.848 46.848-46.848 26.581333 0 46.848 20.309333 46.848 46.848v162.432c0 26.538667-21.845333 46.848-46.848 46.848zM512.768 981.333333a45.994667 45.994667 0 0 1-46.848-46.848v-162.432c0-26.538667 20.309333-46.848 46.848-46.848 26.581333 0 46.848 20.309333 46.848 46.848v162.432c0 26.538667-21.845333 46.848-46.848 46.848zM811.093333 857.941333c-12.501333 0-23.466667-4.693333-32.810666-14.08l-115.541334-113.962666c-18.773333-18.773333-18.773333-48.426667 0-65.621334 18.730667-18.773333 48.384-18.773333 65.578667 0l115.584 115.584c18.730667 18.773333 18.730667 48.426667 0 65.578667-9.386667 7.808-20.309333 12.501333-32.810667 12.501333zM328.490667 375.338667c-12.501333 0-23.466667-4.693333-32.810667-14.08L180.096 245.76c-18.730667-18.773333-18.730667-48.426667 0-65.621333 18.773333-18.730667 48.426667-18.730667 65.621333 0l115.584 115.626666c18.730667 18.688 18.730667 48.384 0 65.578667-9.386667 9.386667-20.309333 14.037333-32.853333 14.037333z" fill="#172B4D" p-id="5259"></path></svg>
