<svg t="1685755519084" class="icon" viewBox="0 0 1024 1024" version="1.1" xmlns="http://www.w3.org/2000/svg" p-id="3441" width="200" height="200"><path d="M809.8816 348.11904C903.49568 378.14272 962.56 422.07232 962.56 471.04v81.92c0 90.48064-201.728 163.84-450.56 163.84S61.44 643.44064 61.44 552.96v-81.92c0-48.9472 59.06432-92.89728 152.6784-122.92096C254.07488 217.53856 372.3264 122.88 512 122.88s257.92512 94.65856 297.8816 225.23904zM512 655.36a40.96 40.96 0 1 0 0-81.92 40.96 40.96 0 0 0 0 81.92z m266.24-40.96a40.96 40.96 0 1 0 0-81.92 40.96 40.96 0 0 0 0 81.92z m-532.48 0a40.96 40.96 0 1 0 0-81.92 40.96 40.96 0 0 0 0 81.92z m266.24-184.32c93.04064 0 178.64704-25.23136 238.30528-66.72384C716.92288 258.12992 621.568 184.32 512 184.32s-204.92288 73.80992-238.30528 179.03616C333.35296 404.84864 418.95936 430.08 512 430.08z m-30.72-204.8a30.72 30.72 0 1 1 0 61.44c-20.5824 0-42.53696 10.67008-58.1632 29.71648a30.72 30.72 0 0 1-47.5136-38.95296C402.75968 244.38784 442.0608 225.28 481.28 225.28zM266.24 737.28c70.4512 16.4864 154.9312 26.09152 245.76 26.09152s175.3088-9.60512 245.76-26.09152c-38.01088 95.8464-133.7344 163.84-245.76 163.84s-207.74912-67.9936-245.76-163.84z" p-id="3442"></path></svg>
